<svg xmlns="http://www.w3.org/2000/svg" xmlns:xlink="http://www.w3.org/1999/xlink" width="0" height="0" style="position:absolute">
	
		<symbol id="arrow" viewBox="0 0 24 24">
			<path d="M5 3l3.057-3L20 12 8.057 24 5 21l9-9z"></path>
		</symbol>
	
		<symbol id="arrow-option" viewBox="0 0 24 24">
			<path d="M12 21L0 3h24z"></path>
		</symbol>
	
		<symbol id="arrow-scroll" viewBox="0 0 24 24">
			<path d="M0 3.795L2.995.815 14.127 12 2.995 23.186 0 20.205 8.167 12 0 3.795zM18.04 12l-8.167 8.205 2.995 2.98L24 12 12.868.814l-2.995 2.98L18.04 12z"></path>
		</symbol>
	
		<symbol id="close" viewBox="0 0 24 24">
			<path d="M23 20.168l-8.185-8.187L23 3.807 20.168 1l-8.182 8.179L3.81 1 1 3.81l8.186 8.196L1 20.19 3.81 23l8.203-8.192L20.193 23z"></path>
		</symbol>
	
		<symbol id="edit" viewBox="0 0 24 24">
			<path d="M4.999 19v2H0v-2h4.999zm2 2l5.827-1.319-4.403-4.4L6.999 21zM24 8.534l-9.689 9.804-4.537-4.536L19.464 4 24 8.534zm-4.48-1.65l-6.916 6.917.707.707 6.916-6.917-.707-.707z"></path>
		</symbol>
	
		<symbol id="filter" viewBox="0 0 24 24">
			<path d="M19 2c1.654 0 3 1.346 3 3v14c0 1.654-1.346 3-3 3H5c-1.654 0-3-1.346-3-3V5c0-1.654 1.346-3 3-3h14zm5 3a5 5 0 0 0-5-5H5a5 5 0 0 0-5 5v14a5 5 0 0 0 5 5h14a5 5 0 0 0 5-5V5zm-8 5a1.001 1.001 0 1 1-1 1c0-.551.448-1 1-1zm0-2a3 3 0 1 0 0 6 3 3 0 0 0 0-6zm-8 2a3 3 0 1 0 0 6 3 3 0 0 0 0-6zm8-4c.343 0 .677.035 1 .101V5a1 1 0 1 0-2 0v1.101A4.988 4.988 0 0 1 16 6zM8 8c.343 0 .677.035 1 .101V5a1 1 0 1 0-2 0v3.101A4.988 4.988 0 0 1 8 8zm8 8c-.343 0-.677-.035-1-.101V19a1 1 0 1 0 2 0v-3.101A4.988 4.988 0 0 1 16 16zm-8 2c-.343 0-.677-.035-1-.101V19a1 1 0 1 0 2 0v-1.101A4.988 4.988 0 0 1 8 18z"></path>
		</symbol>
	
		<symbol id="menu" viewBox="0 0 24 24">
			<path d="M24 6H0V2h24v4zm0 4H0v4h24v-4zm0 8H0v4h24v-4z"></path>
		</symbol>
	
		<symbol id="note" viewBox="0 0 24 24">
			<path d="M6 22V6h16v7.543C22 17.65 16 16 16 16s1.518 6-2.638 6H6zm18-7.614V4H4v20h10.189C17.352 24 24 16.777 24 14.386zM14 16H9v-1h5v1zm5-4H9v1h10v-1zm0-3H9v1h10V9zm2-7H2v19H0V0h21v2z"></path>
		</symbol>
	
		<symbol id="plus" viewBox="0 0 24 24">
			<path d="M12 2c5.514 0 10 4.486 10 10s-4.486 10-10 10S2 17.514 2 12 6.486 2 12 2zm0-2C5.373 0 0 5.373 0 12s5.373 12 12 12 12-5.373 12-12S18.627 0 12 0zm6 13h-5v5h-2v-5H6v-2h5V6h2v5h5v2z"></path>
		</symbol>
	
		<symbol id="search" viewBox="0 0 24 24">
			<path d="M23.832 19.641l-6.821-6.821C19.845 6.942 15.561 0 8.946 0 4.014 0 0 4.014 0 8.947c0 6.508 6.739 10.798 12.601 8.166l6.879 6.879c1.957.164 4.52-2.326 4.352-4.351zM8.946 14.92c-3.293 0-5.973-2.68-5.973-5.973s2.68-5.973 5.973-5.973c3.294 0 5.974 2.68 5.974 5.973s-2.68 5.973-5.974 5.973z"></path>
		</symbol>
	
		<symbol id="social-facebook" viewBox="0 0 24 24">
			<path d="M9 8H6v4h3v12h5V12h3.642L18 8h-4V6.333C14 5.378 14.192 5 15.115 5H18V0h-3.808C10.596 0 9 1.583 9 4.615V8z"></path>
		</symbol>
	
		<symbol id="social-instagram" viewBox="0 0 24 24">
			<path d="M11.984 16.815a4.71 4.71 0 0 0 4.706-4.707 4.717 4.717 0 0 0-4.705-4.707c-.692 0-1.349.151-1.941.421a4.752 4.752 0 0 0-1.158.749 4.695 4.695 0 0 0-1.608 3.538 4.712 4.712 0 0 0 4.706 4.706zM12 8.631a3.479 3.479 0 1 1 0 6.957 3.479 3.479 0 0 1 0-6.957zM17.223 9H24v10.278A4.722 4.722 0 0 1 19.278 24H4.785C2.177 24 0 21.886 0 19.278V9h6.747a6.048 6.048 0 0 0-.872 3.109 6.109 6.109 0 1 0 12.218 0A6.047 6.047 0 0 0 17.223 9zm2.055-9H7v5H6V0H5v5H4V.077a4.79 4.79 0 0 0-1 .27V5H2V.898c-1.202.857-2 2.246-2 3.824V8h7.473a6.087 6.087 0 0 1 9.022 0H24V4.722A4.722 4.722 0 0 0 19.278 0zM22 5.265a.74.74 0 0 1-.745.735h-2.511A.74.74 0 0 1 18 5.265v-2.53A.74.74 0 0 1 18.744 2h2.511a.74.74 0 0 1 .745.735v2.53z"></path>
		</symbol>
	
		<symbol id="social-linkedin" viewBox="0 0 24 24">
			<path d="M4.98 3.5C4.98 4.881 3.87 6 2.5 6S.02 4.881.02 3.5C.02 2.12 1.13 1 2.5 1s2.48 1.12 2.48 2.5zM5 8H0v16h5V8zm7.982 0H8.014v16h4.969v-8.399c0-4.67 6.029-5.052 6.029 0V24H24V13.869c0-7.88-8.922-7.593-11.018-3.714V8z"></path>
		</symbol>
	
		<symbol id="social-twitter" viewBox="0 0 24 24">
			<path d="M24 4.557a9.83 9.83 0 0 1-2.828.775 4.932 4.932 0 0 0 2.165-2.724 9.864 9.864 0 0 1-3.127 1.195 4.916 4.916 0 0 0-3.594-1.555c-3.179 0-5.515 2.966-4.797 6.045A13.978 13.978 0 0 1 1.671 3.149a4.93 4.93 0 0 0 1.523 6.574 4.903 4.903 0 0 1-2.229-.616c-.054 2.281 1.581 4.415 3.949 4.89a4.935 4.935 0 0 1-2.224.084 4.928 4.928 0 0 0 4.6 3.419A9.9 9.9 0 0 1 0 19.54a13.94 13.94 0 0 0 7.548 2.212c9.142 0 14.307-7.721 13.995-14.646A10.025 10.025 0 0 0 24 4.557z"></path>
		</symbol>
	
		<symbol id="symbols" viewBox="">
			
		</symbol>
	
		<symbol id="trash" viewBox="0 0 24 24">
			<path d="M9 19a1 1 0 0 1-2 0V9a1 1 0 0 1 2 0v10zm4 0a1 1 0 0 1-2 0V9a1 1 0 0 1 2 0v10zm4 0a1 1 0 0 1-2 0V9a1 1 0 0 1 2 0v10zm5-17v2H2V2h5.711c.9 0 1.631-1.099 1.631-2h5.315c0 .901.73 2 1.631 2H22zm-3 4v16H5V6H3v18h18V6h-2z"></path>
		</symbol>
	
		<symbol id="user" viewBox="0 0 24 24">
			<path d="M19 7.001A7 7 0 1 1 4.999 7 7 7 0 0 1 19 7zm-1.598 7.18A8.937 8.937 0 0 1 12 16.001a8.953 8.953 0 0 1-5.407-1.822C2.521 15.972 0 21.555 0 24h24c0-2.423-2.6-8.006-6.598-9.819z"></path>
		</symbol>
	
</svg>
